<svg width="40" height="39" viewBox="0 0 40 39" fill="none" xmlns="http://www.w3.org/2000/svg">
<path d="M19.7168 0C30.7325 0.242413 39.361 8.79817 39.2747 19.6069C39.1884 30.5155 30.5599 39.0998 19.4579 39C8.586 38.9144 -0.0856467 30.3872 0.00063836 19.4358C0.0869234 8.48446 8.52847 0.285192 19.7168 0ZM9.42009 17.5108C9.34818 22.0739 13.1447 25.4676 17.6028 25.7528C19.7311 25.8954 21.8164 24.8973 23.4126 23.3002C24.937 21.7744 25.9581 19.8494 25.8574 17.7817C25.6273 13.0048 22.5498 9.52541 17.6603 9.48263C13.3892 9.45411 9.66456 12.9762 9.43447 17.1971C9.43447 17.3112 9.42009 17.411 9.42009 17.5108ZM29.8409 23.5426C29.6108 22.5016 29.5964 21.2896 28.8774 20.2201C28.1583 19.1506 26.9935 19.1506 26.4326 20.2771C26.2313 20.6764 26.0587 21.0899 25.8574 21.4892C24.7932 23.457 23.4558 25.1397 21.1836 25.8526C20.7666 25.981 20.3927 26.2662 20.0475 26.5229C19.3572 27.0647 19.3141 27.7492 19.9756 28.3053C21.6438 29.7313 24.1029 29.9594 26.0875 29.0753C27.9138 28.2483 30.3298 25.7101 29.8409 23.5426Z" fill="white"/>
<path d="M19.9031 16.2136C19.4717 16.071 19.1553 16.071 19.0258 15.9142C18.4938 15.301 17.8179 15.358 17.142 15.4436C16.9119 15.4721 16.5955 15.6718 16.538 15.8571C16.4804 16.0425 16.6099 16.4133 16.7824 16.5273C17.2139 16.841 17.7028 17.0977 18.1918 17.2831C19.069 17.6111 20.0037 18.0103 20.0469 19.0085C20.09 19.9639 19.2991 20.5771 18.4506 20.9906C18.2061 21.1047 17.9617 21.233 17.7028 21.3613C16.5236 20.9478 15.5888 20.2776 15.2005 18.9657C15.7183 18.5665 16.0346 18.7376 16.351 19.1654C16.9262 19.9211 17.7172 19.7215 18.4506 19.5504C18.9396 19.4363 19.0115 18.9372 18.58 18.6378C18.0767 18.2813 17.4871 18.0531 16.9406 17.7679C16.5523 17.5683 16.1065 17.4257 15.7902 17.1405C14.9129 16.3562 14.8985 15.6432 15.7758 14.8732C16.3366 14.3741 17.0125 13.9891 17.6597 13.5186C18.4938 14.3171 19.7305 14.6165 19.9031 16.2136Z" fill="white"/>
</svg>
