<svg width="40" height="40" viewBox="0 0 40 40" fill="none" xmlns="http://www.w3.org/2000/svg">
<g id="Edit">
<g id="Vector">
<path d="M35.3236 4.67699C37.1152 6.46865 37.1152 9.3735 35.3236 11.1652L34.4977 11.9911C34.2572 11.939 33.9543 11.8597 33.6092 11.74C32.6853 11.4194 31.4711 10.8137 30.329 9.67159C29.1869 8.52948 28.5811 7.3153 28.2606 6.39142C28.1408 6.04626 28.0616 5.7434 28.0095 5.50291L28.8354 4.67699C30.6271 2.88534 33.5319 2.88534 35.3236 4.67699Z" fill="#323541"/>
<path d="M24.3008 22.188C23.6274 22.8613 23.2907 23.198 22.9195 23.4875C22.4816 23.8291 22.0078 24.1219 21.5065 24.3609C21.0815 24.5634 20.6298 24.714 19.7264 25.0151L14.9625 26.6031C14.5179 26.7513 14.0278 26.6355 13.6964 26.3042C13.365 25.9728 13.2493 25.4827 13.3975 25.0381L14.9855 20.2742C15.2866 19.3708 15.4372 18.9191 15.6397 18.4941C15.8786 17.9928 16.1715 17.519 16.513 17.0811C16.8026 16.7098 17.1393 16.3732 17.8126 15.6998L26.0061 7.50633C26.4457 8.66332 27.2162 10.0943 28.5612 11.4394C29.9063 12.7844 31.3373 13.5549 32.4942 13.9945L24.3008 22.188Z" fill="#323541"/>
<path d="M20.0007 36.6666C29.2054 36.6666 36.6673 29.2047 36.6673 19.9999C36.6673 18.0136 36.3198 16.1084 35.6824 14.3419L25.9773 24.047C25.3919 24.6327 24.952 25.0728 24.4571 25.4588C23.876 25.912 23.2473 26.3006 22.582 26.6177C22.0154 26.8877 21.4251 27.0843 20.6394 27.346L15.753 28.9748C14.4101 29.4224 12.9296 29.0729 11.9286 28.0719C10.9277 27.071 10.5782 25.5904 11.0258 24.2475L12.6546 19.3611C12.9162 18.5755 13.1129 17.9852 13.3829 17.4186C13.6999 16.7533 14.0885 16.1246 14.5418 15.5435C14.9278 15.0485 15.3679 14.6087 15.9535 14.0233L25.6587 4.31821C23.8921 3.68073 21.987 3.33325 20.0007 3.33325C10.7959 3.33325 3.33398 10.7952 3.33398 19.9999C3.33398 29.2047 10.7959 36.6666 20.0007 36.6666Z" fill="#323541"/>
</g>
</g>
</svg>
