<svg width="40" height="40" viewBox="0 0 40 40" fill="none" xmlns="http://www.w3.org/2000/svg">
<g id="Edit">
<path id="Vector" fill-rule="evenodd" clip-rule="evenodd" d="M2.08398 20C2.08398 10.1049 10.1055 2.08337 20.0007 2.08337C20.691 2.08337 21.2507 2.64302 21.2507 3.33337C21.2507 4.02373 20.691 4.58337 20.0007 4.58337C11.4863 4.58337 4.58398 11.4857 4.58398 20C4.58398 28.5144 11.4863 35.4167 20.0007 35.4167C28.515 35.4167 35.4173 28.5144 35.4173 20C35.4173 19.3097 35.977 18.75 36.6673 18.75C37.3577 18.75 37.9173 19.3097 37.9173 20C37.9173 29.8951 29.8958 37.9167 20.0007 37.9167C10.1055 37.9167 2.08398 29.8951 2.08398 20ZM27.9515 3.79323C30.2313 1.51342 33.9277 1.51342 36.2075 3.79323C38.4873 6.07304 38.4873 9.76935 36.2075 12.0492L25.1273 23.1293C24.5085 23.7482 24.1209 24.1359 23.6883 24.4733C23.1788 24.8707 22.6275 25.2114 22.0442 25.4894C21.549 25.7254 21.0289 25.8987 20.1986 26.1754L15.3578 27.789C14.464 28.087 13.4787 27.8543 12.8125 27.1882C12.1464 26.522 11.9137 25.5367 12.2117 24.6429L13.8253 19.8021C14.102 18.9718 14.2753 18.4517 14.5113 17.9565C14.7893 17.3732 15.13 16.8219 15.5274 16.3124C15.8648 15.8798 16.2525 15.4922 16.8714 14.8734L27.9515 3.79323ZM34.4397 5.561C33.1362 4.2575 31.0228 4.2575 29.7193 5.561L29.0916 6.1887C29.1294 6.34847 29.1824 6.53883 29.256 6.75115C29.4949 7.43958 29.9469 8.34623 30.8007 9.20003C31.6545 10.0538 32.5611 10.5058 33.2495 10.7447C33.4619 10.8183 33.6522 10.8713 33.812 10.9091L34.4397 10.2814C35.7432 8.97789 35.7432 6.8645 34.4397 5.561ZM31.8426 12.8785C30.9826 12.5087 29.9809 11.9158 29.0329 10.9678C28.0849 10.0198 27.492 9.01808 27.1222 8.15813L18.6965 16.5838C18.0023 17.278 17.7301 17.5533 17.4987 17.85C17.213 18.2163 16.968 18.6126 16.7681 19.032C16.6063 19.3716 16.4818 19.7383 16.1713 20.6696L15.4515 22.8291L17.1716 24.5492L19.3311 23.8294C20.2624 23.5189 20.6291 23.3944 20.9687 23.2326C21.3881 23.0327 21.7844 22.7877 22.1507 22.502C22.4474 22.2706 22.7227 21.9984 23.4169 21.3042L31.8426 12.8785Z" fill="#F6871F"/>
</g>
</svg>
