<svg width="35" height="35" viewBox="0 0 35 35" fill="none" xmlns="http://www.w3.org/2000/svg">
<path id="Vector" d="M34.9476 17.3301C35.0448 20.091 34.3273 22.6793 33.0139 25.1066C31.9559 27.0507 30.5209 28.7417 28.7088 30.1337C26.5806 31.7787 24.1849 32.8945 21.5459 33.5617C19.5879 34.0564 17.5813 34.1714 15.5747 33.9299C11.4277 33.4122 7.82803 31.7787 4.95798 28.8683C3.53512 27.4303 2.28251 25.8313 1.41906 24.0482C0.859646 22.8864 0.458326 21.644 0.348875 20.321C0.20294 18.5725 -0.174057 16.8239 0.0934894 15.0639C0.288069 13.787 0.446165 12.4871 0.823163 11.2562C1.29745 9.71469 2.17306 8.33425 3.18244 7.03434C4.52017 5.32029 6.12546 3.87084 7.9618 2.66295C9.7495 1.48958 11.7196 0.730342 13.8843 0.362225C15.6234 0.074634 17.3503 -0.120925 19.1015 0.0861401C22.1053 0.431249 24.9754 1.20199 27.3954 2.99656C28.6724 3.93986 29.9615 4.91767 30.9708 6.09104C33.2085 8.67936 34.6192 11.6473 34.8259 15.0524C34.8624 15.8231 34.9111 16.5709 34.9476 17.3301ZM17.2287 23.9217C18.3718 23.9677 19.442 23.7146 20.4757 23.3005C21.327 22.9554 22.0567 21.851 21.8742 20.9998C21.777 20.5626 21.5945 20.0565 21.2662 19.7459C20.6095 19.1132 19.8555 18.561 19.1015 18.0433C18.1894 17.4106 18.1286 16.8239 19.0042 16.1567C19.4663 15.8001 19.9649 15.4665 20.4027 15.0869C20.9865 14.5807 21.6675 14.1206 21.8621 13.3268C22.1783 12.0499 20.9135 10.1173 19.2961 10.1403C17.9705 10.1518 16.6328 10.1978 15.3072 10.1288C14.0546 10.0713 13.179 10.612 12.6195 11.5668C11.8412 12.8667 11.9872 13.4764 12.9114 14.3622C13.6289 15.0524 14.3829 15.6966 15.1126 16.3753C15.818 17.031 15.7815 17.2266 14.9788 17.7672C13.8722 18.515 12.8749 19.3662 12.352 20.6086C11.8899 21.7015 12.352 22.7138 13.4344 23.3005C14.6505 23.9217 15.9517 23.8182 17.2287 23.9217Z" fill="#FF9C43"/>
</svg>
