<svg width="35" height="34" viewBox="0 0 35 34" fill="none" xmlns="http://www.w3.org/2000/svg">
<path id="Vector" d="M34.9277 16.8192C34.8912 25.6425 27.1323 33.0048 17.6101 33.0393C7.88112 33.0738 0.0736104 25.5619 0.000643113 16.336C-0.0844854 7.39768 8.2946 -0.0911899 17.4642 0.000839275C26.8405 0.0928684 35.1223 7.28264 34.9277 16.8192ZM16.7588 16.9917C14.74 16.9227 13.2077 17.7625 12.1011 19.3155C11.7849 19.7756 11.5052 20.3278 11.8092 20.8799C12.2835 21.7427 12.9402 22.548 13.8766 22.9621C16.4669 24.101 18.96 23.8249 21.2341 22.2029C22.73 21.133 22.584 19.465 21.1855 18.3837C19.9207 17.3828 18.3884 17.0262 16.7588 16.9917ZM17.0507 9.52586C15.1778 9.52586 13.5604 10.9293 13.5482 12.5513C13.5361 14.783 14.8495 16.0714 17.0385 16.1635C18.4857 16.221 20.5896 14.3804 20.4801 12.6894C20.395 11.1594 18.7168 9.52586 17.0507 9.52586Z" fill="#FF9C43"/>
</svg>
