<svg width="23" height="23" viewBox="0 0 23 23" fill="none" xmlns="http://www.w3.org/2000/svg">
<path d="M11.5 23C17.8513 23 23 17.8513 23 11.5C23 5.14873 17.8513 0 11.5 0C5.14873 0 0 5.14873 0 11.5C0 17.8513 5.14873 23 11.5 23Z" fill="#FF9743"/>
<path d="M14.1301 11.1002C14.2101 10.9902 14.3101 10.9202 14.4201 10.9202C14.5301 10.9202 14.6401 10.9302 14.7301 10.9802C14.8201 11.0302 14.8901 11.0902 14.9501 11.1802C15.0101 11.2602 15.0101 11.3402 14.9601 11.4302C14.7801 11.8102 14.5201 12.3002 14.1801 12.9002C13.8401 13.5002 13.4601 14.1102 13.0501 14.7102C12.6401 15.3102 12.2201 15.8602 11.7901 16.3502C11.3601 16.8402 10.9701 17.1602 10.6301 17.3102C10.4201 17.3902 10.1701 17.4202 9.90013 17.3802C9.62013 17.3502 9.36013 17.2702 9.12013 17.1502C8.88013 17.0302 8.67013 16.8602 8.51013 16.6602C8.35013 16.4602 8.27013 16.2202 8.29013 15.9602C8.31013 15.6302 8.38013 15.2002 8.50013 14.6502C8.62013 14.1002 8.79013 13.5202 8.99013 12.9102C9.19013 12.3002 9.42013 11.6902 9.66013 11.1002C9.91013 10.5002 10.1601 9.99017 10.4201 9.57017C10.5001 9.44017 10.6701 9.37017 10.9201 9.37017C11.1701 9.37017 11.4201 9.42017 11.6701 9.52017C11.9201 9.62017 12.1201 9.75017 12.2801 9.91017C12.4401 10.0702 12.4801 10.2402 12.4001 10.4202C11.6301 11.8902 11.1101 13.0402 10.8301 13.8602C10.5501 14.6802 10.4601 15.2202 10.5601 15.4602C10.6201 15.6402 10.7601 15.6602 10.9801 15.5202C11.1901 15.3802 11.4601 15.1202 11.7801 14.7202C12.1001 14.3302 12.4601 13.8202 12.8701 13.2002C13.2701 12.5902 13.6901 11.8802 14.1301 11.1002ZM12.5901 8.53017C12.4901 8.66017 12.3501 8.73017 12.1601 8.75017C11.9701 8.77017 11.7801 8.75017 11.6001 8.69017C11.4101 8.63017 11.2501 8.55017 11.1101 8.43017C10.9701 8.32017 10.9101 8.19017 10.9301 8.06017C10.9601 7.83017 11.0201 7.59017 11.0901 7.34017C11.1601 7.09017 11.2401 6.85017 11.3201 6.63017C11.4001 6.41017 11.4801 6.21017 11.5701 6.03017C11.6601 5.85017 11.7201 5.71017 11.7701 5.61017C11.8701 5.46017 12.0501 5.39017 12.3101 5.38017C12.5701 5.37017 12.8301 5.42017 13.0801 5.51017C13.3301 5.61017 13.5401 5.74017 13.7101 5.90017C13.8701 6.06017 13.9101 6.23017 13.8101 6.39017C13.7601 6.49017 13.6801 6.63017 13.5801 6.82017C13.4701 7.01017 13.3601 7.20017 13.2501 7.41017C13.1401 7.61017 13.0201 7.81017 12.9101 8.01017C12.7701 8.21017 12.6701 8.38017 12.5901 8.53017Z" fill="white"/>
</svg>
