<svg width="40" height="39" viewBox="0 0 40 39" fill="none" xmlns="http://www.w3.org/2000/svg">
<path d="M19.7743 0C30.8044 0.34223 39.4041 8.72687 39.3179 19.7068C39.2316 30.3587 30.6031 39.057 19.573 39C8.54286 38.943 -0.0856435 30.2589 0.000641498 19.3788C0.0725457 8.66984 8.586 0.185375 19.7743 0ZM28.4891 18.1667C28.6185 16.7693 28.2015 15.3148 27.4681 14.0457C25.0808 9.9532 20.6084 8.71261 16.438 10.2527C12.1668 11.8355 10.4555 16.1133 11.3184 20.3484C11.8648 23.0007 13.2742 25.1397 14.9999 27.1075C16.0784 28.3338 17.4015 29.2607 19.1415 29.389C20.4214 29.4746 21.6294 29.332 22.7511 28.6048C24.6638 27.3642 25.9005 25.5817 26.9935 23.6709C27.9426 22.0026 28.5322 20.2344 28.4891 18.1667Z" fill="white"/>
<path d="M17.3594 17.9671C17.3594 16.2845 18.1935 15.4146 19.7897 15.4289C21.2997 15.4431 22.5796 16.5554 22.5077 17.9814C22.4214 19.5927 21.6161 20.4625 19.8041 20.4768C18.0784 20.4625 17.3594 19.6925 17.3594 17.9671Z" fill="white"/>
</svg>
