<svg width="35" height="34" viewBox="0 0 35 34" fill="none" xmlns="http://www.w3.org/2000/svg">
<path id="Vector" d="M34.9393 16.7394C34.9393 25.8848 26.8764 32.971 17.6461 33.0515C8.28191 33.1436 0.0366034 25.7007 0.00011974 16.2907C-0.0363639 7.42142 8.26975 -0.124971 17.4393 0.00156873C27.0953 0.128109 35.0852 7.3639 34.9393 16.7394ZM14.4477 16.9694C12.8667 16.8084 11.4073 17.4871 10.2034 18.7065C8.9143 20.0064 9.21833 21.5364 10.8479 22.4107C11.8695 22.9628 12.9518 23.3195 14.1071 23.377C15.7124 23.446 17.3542 23.3655 18.7041 22.3877C19.7013 21.6629 20.2242 20.6161 19.7621 19.5348C19.4338 18.7985 18.9351 18.2348 18.2541 17.7402C17.1596 16.9694 15.9192 17.0155 14.4477 16.9694ZM18.2055 12.7131C18.4122 10.7575 16.357 9.51509 14.776 9.38855C13.2802 9.27351 11.3465 11.2982 11.3587 12.6786C11.383 14.6112 12.8302 16.0837 14.8855 16.0837C16.7218 16.0722 18.2784 14.8068 18.2055 12.7131ZM20.431 10.8725C19.3729 10.8265 19.0811 11.1716 19.2392 12.1264C19.3608 12.8741 19.1905 13.6564 19.1297 14.4271C19.1054 14.8068 19.0203 15.1749 18.9716 15.5545C18.9351 15.8651 19.0568 16.0722 19.4094 16.0722C21.0634 16.0722 21.8174 15.9111 22.5714 14.5537C23.4226 13.0467 22.17 10.6539 20.431 10.8725ZM20.4553 16.9119C20.1269 16.9464 19.7986 16.9694 19.4824 17.004C19.1054 17.05 18.9838 17.303 19.2149 17.5446C19.4824 17.8207 19.8594 18.0048 20.1877 18.2348C20.4553 18.4189 20.8445 18.5569 20.9661 18.7985C21.2823 19.4312 21.3795 20.1099 21.1728 20.8117C21.112 21.0302 21.0512 21.2488 21.0512 21.4674C21.039 22.031 21.4282 22.3186 21.9268 22.0541C22.6322 21.6744 23.3132 21.2373 23.9091 20.7311C24.3955 20.317 24.4199 19.4772 24.0793 18.9481C23.2402 17.6712 22.1944 16.7509 20.4553 16.9119Z" fill="#FF9C43"/>
</svg>
