<svg width="35" height="34" viewBox="0 0 35 34" fill="none" xmlns="http://www.w3.org/2000/svg">
<path id="Vector" d="M17.417 33.0639C14.997 33.1789 12.7715 32.5002 10.5703 31.6489C7.85833 30.5906 5.70579 28.865 3.91809 26.7368C2.94519 25.5865 2.09391 24.3211 1.40072 22.9982C0.877785 21.9858 0.622399 20.8125 0.403497 19.6966C0.160273 18.4657 -0.0221457 17.2003 0.00217677 15.9464C0.0386604 13.7952 0.403497 11.6786 1.41288 9.72295C2.53171 7.56027 4.12483 5.73119 6.00982 4.10918C7.1773 3.10836 8.39342 2.14205 9.85277 1.57837C11.0932 1.09522 12.3823 0.692594 13.6836 0.416507C14.8997 0.163427 16.1644 0.0829012 17.417 0.0138793C19.1683 -0.0781498 20.8465 0.30147 22.5248 0.738609C24.203 1.17575 25.7353 1.86597 27.146 2.79776C31.2808 5.52412 33.8833 9.2283 34.7103 13.9333C35.0873 16.0615 35.0508 18.2241 34.4549 20.3523C33.8712 22.423 33.0685 24.4016 31.6943 26.0926C30.7944 27.2085 29.6877 28.1863 28.6054 29.1641C26.9028 30.6941 24.7989 31.5569 22.6099 32.2701C20.9195 32.8223 19.2048 33.1329 17.417 33.0639ZM11.2027 17.5914C11.227 17.5914 11.2513 17.5914 11.2635 17.5914C11.2635 18.0746 11.2513 18.5578 11.2635 19.0409C11.3 20.1338 11.6283 21.0886 12.7107 21.6522C13.7322 22.1814 14.7294 22.7451 15.7874 23.1937C16.736 23.5848 17.6968 23.5273 18.6088 22.9752C19.1561 22.6415 19.7398 22.3194 20.3479 22.1009C22.0018 21.5027 22.695 20.3178 22.7315 18.7303C22.7558 17.8905 22.7558 17.0393 22.7315 16.188C22.695 14.5775 21.9167 13.5767 20.3236 13.036C19.302 12.7024 18.2927 12.3573 17.5751 11.529C17.3562 11.2759 17.1009 11.2759 16.7968 11.46C16.2982 11.7476 15.7874 12.0007 15.2645 12.2538C14.4254 12.6564 13.5619 13.036 12.7228 13.4616C11.908 13.8758 11.3851 14.5085 11.3243 15.4288C11.3 16.1535 11.2513 16.8667 11.2027 17.5914ZM16.4077 9.19379C16.0793 9.2283 15.4956 9.2513 14.924 9.34333C13.7808 9.52739 12.8566 10.3787 12.7107 11.4255C12.6742 11.6556 12.735 11.9777 12.8931 12.1157C13.0147 12.2192 13.3917 12.1617 13.5863 12.0582C14.5713 11.5405 15.5442 10.9884 16.4928 10.4362C17.0157 10.1371 17.3076 10.1141 17.7697 10.5052C18.0738 10.7583 18.3291 11.0459 18.6453 11.2875C19.2899 11.7936 19.9344 12.3113 20.8708 12.2538C21.26 12.2307 21.4059 12.0812 21.3816 11.6901C21.333 10.7353 20.7735 10.1486 19.9223 9.73446C18.8886 9.2283 17.7697 9.2513 16.4077 9.19379Z" fill="#FF9C43"/>
</svg>
