<svg width="30" height="30" viewBox="0 0 30 30" fill="none" xmlns="http://www.w3.org/2000/svg">
<g id="Send">
<path id="Vector" d="M23.2946 19.5877L25.4402 13.151C27.3145 7.52802 28.2516 4.71653 26.7676 3.23244C25.2835 1.74836 22.472 2.68552 16.849 4.55984L10.4123 6.7054C5.87404 8.21817 3.6049 8.97455 2.96007 10.0837C2.34664 11.1389 2.34664 12.4421 2.96007 13.4973C3.6049 14.6065 5.87404 15.3629 10.4123 16.8756C11.141 17.1185 11.5054 17.24 11.8099 17.4438C12.1051 17.6414 12.3586 17.895 12.5562 18.1901C12.76 18.4946 12.8815 18.859 13.1244 19.5877C14.6371 24.126 15.3935 26.3951 16.5027 27.0399C17.5579 27.6534 18.8611 27.6534 19.9163 27.0399C21.0254 26.3951 21.7818 24.1259 23.2946 19.5877Z" stroke="white" stroke-width="3"/>
<path id="Vector_2" d="M22.2378 7.76361L16.9746 12.9688" stroke="white" stroke-width="3" stroke-linecap="round"/>
</g>
</svg>
