<svg width="18" height="19" viewBox="0 0 18 19" fill="none" xmlns="http://www.w3.org/2000/svg">
<g id="Group">
<path id="Vector" d="M16.2142 9.69376C16.0515 9.13083 16.0917 8.76545 16.5459 8.30237C17.8684 6.95346 17.3593 4.99277 15.5699 4.44895C15.0037 4.27689 14.7945 3.98799 14.6741 3.44418C14.4586 2.47976 14.1481 1.53659 13.884 0.582796C13.8037 0.293897 13.6875 0.0368612 13.3558 0.00287299C13.0706 -0.0268667 12.8911 0.179187 12.7749 0.393737C11.7312 2.33956 10.1679 3.78406 8.39328 5.02888C7.77217 5.18607 7.65809 5.6003 7.83555 6.15261C8.08906 6.94709 8.34891 7.73943 8.60666 8.53391C8.61511 9.2859 8.96158 9.9423 9.17918 10.6369C9.2003 11.287 9.52353 11.5461 10.1763 11.5291C11.22 11.5015 12.2404 11.7118 13.2481 11.9816C14.1544 12.4638 15.1833 12.6868 16.0114 13.339C16.2227 13.5047 16.4994 13.6576 16.7888 13.4495C17.0741 13.2434 17.0149 12.9545 16.9494 12.6783C16.7128 11.6821 16.4994 10.6773 16.2142 9.69376Z" fill="#283444"/>
<path id="Vector_2" d="M7.93806 12.9166C7.20498 12.1115 7.21977 12.0223 8.22115 11.7058C8.55917 11.5974 8.94789 11.5762 8.89296 11.0494C8.32889 9.44979 8.02045 7.78012 7.60004 6.14019C7.47117 5.63674 7.01695 5.71958 6.62823 5.81518C5.77473 6.02548 4.88954 6.16143 4.07829 6.48219C3.15085 6.84969 1.80511 6.59903 1.51357 8.05415C1.49667 8.14124 1.2854 8.23046 1.15442 8.24533C-0.235686 8.4004 -0.111042 9.26073 0.205852 10.2379C0.326272 10.6054 0.406551 10.992 0.465705 11.3744C0.611476 12.3048 1.0509 12.6978 1.99313 12.3069C2.2382 12.2071 2.4727 12.0945 2.77692 12.3027C3.81421 13.0079 4.62124 13.9171 5.31207 14.9516C5.86135 15.7737 6.43387 16.5809 7.01273 17.3818C7.31483 17.8003 7.70567 18.1253 8.26551 17.966C9.28591 17.6771 10.0612 15.4126 9.41267 14.5778C8.96268 13.9915 8.43664 13.4646 7.93806 12.9166Z" fill="#283444"/>
</g>
</svg>
