<svg width="33" height="34" viewBox="0 0 33 34" fill="none" xmlns="http://www.w3.org/2000/svg">
<rect width="33" height="34" fill="#999999"/>
<g id="Home" clip-path="url(#clip0_1_13643)">
<rect width="1440" height="4076" transform="translate(-85 -2750)" fill="#F0EAE9"/>
<g id="Group 2030">
<g id="Vector" filter="url(#filter0_d_1_13643)">
<path d="M1334 -44.9824H-87V355.018H1334V-44.9824Z" fill="black"/>
</g>
</g>
<g id="Group">
<path id="Vector_2" d="M30.0918 17.8787C29.79 16.8413 29.8644 16.168 30.7074 15.3146C33.1616 12.8288 32.2168 9.21554 28.8961 8.21338C27.8454 7.89629 27.4572 7.3639 27.2337 6.36174C26.8339 4.58447 26.2575 2.84634 25.7675 1.08864C25.6185 0.556247 25.4029 0.0825778 24.7873 0.0199428C24.2581 -0.0348628 23.9248 0.344872 23.7092 0.740256C21.7724 4.32611 18.8713 6.98807 15.578 9.28208C14.4254 9.57177 14.2136 10.3351 14.543 11.353C15.0134 12.8171 15.4957 14.2772 15.974 15.7413C15.9897 17.1271 16.6326 18.3368 17.0365 19.6169C17.0757 20.8148 17.6755 21.2924 18.8869 21.261C20.8237 21.2101 22.7173 21.5977 24.5874 22.0949C26.2693 22.9835 28.1786 23.3945 29.7155 24.5964C30.1075 24.9017 30.6211 25.1835 31.1582 24.7999C31.6875 24.4202 31.5777 23.8878 31.4562 23.3789C31.0171 21.5429 30.6211 19.6912 30.0918 17.8787Z" fill="white"/>
<path id="Vector_3" d="M14.7312 23.8172C13.3708 22.3335 13.3982 22.1691 15.2565 21.5858C15.8838 21.3862 16.6052 21.347 16.5033 20.3762C15.4565 17.4284 14.8841 14.3515 14.1039 11.3293C13.8647 10.4015 13.0218 10.5542 12.3005 10.7304C10.7166 11.1179 9.07385 11.3685 7.56836 11.9596C5.84725 12.6368 3.34986 12.1749 2.80883 14.8565C2.77746 15.017 2.3854 15.1814 2.14233 15.2088C-0.437381 15.4945 -0.206066 17.08 0.382014 18.8807C0.605485 19.558 0.754482 20.2705 0.864257 20.9751C1.13477 22.6897 1.95024 23.4139 3.6988 22.6936C4.15358 22.5097 4.58877 22.3022 5.15332 22.6858C7.07831 23.9855 8.57595 25.661 9.85797 27.5674C10.8773 29.0824 11.9398 30.57 13.014 32.0458C13.5746 32.817 14.2999 33.416 15.3389 33.1224C17.2325 32.59 18.6713 28.4169 17.4677 26.8784C16.6326 25.798 15.6564 24.8271 14.7312 23.8172Z" fill="white"/>
</g>
</g>
<defs>
<filter id="filter0_d_1_13643" x="-91" y="-44.9824" width="1429" height="408" filterUnits="userSpaceOnUse" color-interpolation-filters="sRGB">
<feFlood flood-opacity="0" result="BackgroundImageFix"/>
<feColorMatrix in="SourceAlpha" type="matrix" values="0 0 0 0 0 0 0 0 0 0 0 0 0 0 0 0 0 0 127 0" result="hardAlpha"/>
<feOffset dy="4"/>
<feGaussianBlur stdDeviation="2"/>
<feComposite in2="hardAlpha" operator="out"/>
<feColorMatrix type="matrix" values="0 0 0 0 0 0 0 0 0 0 0 0 0 0 0 0 0 0 0.25 0"/>
<feBlend mode="normal" in2="BackgroundImageFix" result="effect1_dropShadow_1_13643"/>
<feBlend mode="normal" in="SourceGraphic" in2="effect1_dropShadow_1_13643" result="shape"/>
</filter>
<clipPath id="clip0_1_13643">
<rect width="1440" height="4076" fill="white" transform="translate(-85 -2750)"/>
</clipPath>
</defs>
</svg>
