<svg width="40" height="40" viewBox="0 0 40 40" fill="none" xmlns="http://www.w3.org/2000/svg">
<path d="M19.6445 0C30.5596 0.228154 39.2888 8.51298 39.2744 19.5356C39.2744 30.5298 30.5165 39 19.6733 39.0143C8.62882 39.0143 0.043427 30.4585 0.000284528 19.5642C-0.0572388 8.69835 8.61441 0.242413 19.6445 0ZM14.5393 29.0468C15.1433 28.9755 15.7905 28.7188 16.2938 28.3909C17.3436 27.7064 18.379 26.7795 19.6302 26.8223C20.8238 26.8651 21.7585 27.8062 22.7508 28.4622C23.7431 29.1181 25.2962 29.4318 25.9865 28.4622C26.1878 28.1912 26.2741 27.849 26.3172 27.521C26.5042 25.8241 25.3825 24.113 25.8858 22.4874C26.6911 19.9064 32.1415 17.3397 26.533 15.985C25.3681 15.6998 24.0738 15.5287 23.211 14.7016C22.3769 13.9031 22.1324 12.7053 21.6147 11.6786C21.097 10.6519 19.9753 9.68227 18.8967 10.0815C18.4509 10.2527 18.1058 10.6234 17.8326 11.0227C16.869 12.4771 16.5239 14.4735 14.9995 15.3291C14.1367 15.8139 13.1012 15.7996 12.1377 15.985C11.1742 16.1704 10.1101 16.6695 9.87996 17.6249C9.69301 18.4091 10.1244 19.2077 10.6853 19.7781C11.2461 20.3627 11.9364 20.8048 12.4254 21.4464C13.0725 22.2592 13.3457 23.343 13.1731 24.3697C12.9287 25.7814 11.922 27.3784 12.8424 28.4764C13.2738 28.9755 13.8922 29.1181 14.5393 29.0468Z" fill="white"/>
</svg>
