<svg width="35" height="35" viewBox="0 0 35 35" fill="none" xmlns="http://www.w3.org/2000/svg">
<path id="Vector" d="M34.952 17.2065C35.0493 20.0133 34.2953 22.6247 32.9818 25.098C31.8265 27.2837 30.1848 29.1358 28.0444 30.5392C26.9864 31.2294 25.9162 31.9426 24.7609 32.4718C23.6542 32.978 22.4624 33.3576 21.2706 33.6452C19.3613 34.1053 17.4155 34.1628 15.4575 33.9213C12.9402 33.6222 10.593 32.9089 8.46482 31.586C6.8109 30.5622 5.22994 29.4463 4.06246 27.9049C3.12605 26.6625 2.14099 25.4201 1.43564 24.0511C0.888381 22.9928 0.608673 21.7734 0.401933 20.5885C0.158708 19.1851 -0.011549 17.7471 0.000612177 16.3207C0.0127734 14.0775 0.341126 11.8458 1.35051 9.77512C1.69102 9.07339 2.17747 8.44068 2.61528 7.78497C3.8314 5.95589 5.40019 4.41441 7.20006 3.103C8.69589 2.02166 10.3377 1.13587 12.174 0.675729C14.7522 0.0200209 17.3304 -0.187036 20.018 0.18108C25.1014 0.894306 28.9443 3.32156 31.863 7.2328C33.371 9.25744 34.3196 11.5007 34.7087 13.9509C34.9033 15.0208 34.879 16.1136 34.952 17.2065ZM24.4082 15.596C24.4812 14.3536 23.3137 12.7891 21.8422 12.8006C21.003 12.8121 20.5044 12.467 20.1761 11.6847C19.7504 10.6724 18.96 9.90166 17.6952 9.83264C17.0628 9.79813 16.4061 9.80963 15.7859 9.93617C14.7279 10.1547 13.9739 10.7989 13.6333 11.7883C13.3658 12.5705 13.1469 12.7661 12.2834 12.8006C10.9822 12.8466 10.0215 13.3297 9.55933 14.5606C9.15801 15.619 9.32827 16.7003 10.1066 17.0914C10.8363 17.4596 11.6389 17.7241 12.4172 17.9887C13.1469 18.2303 13.9739 18.2648 14.3873 19.0356C15.2021 20.577 18.1087 20.7266 19.0086 19.1046C19.2883 18.5984 19.7626 18.3108 20.3585 18.1383C21.38 17.8277 22.3773 17.4365 23.3745 17.0684C24.2379 16.7233 24.4203 16.4472 24.4082 15.596ZM16.9777 23.7865C16.9777 23.8096 16.9777 23.8326 16.9777 23.8671C17.3425 23.8671 17.7074 23.8786 18.0722 23.8671C19.2032 23.8441 20.3342 23.8441 21.4652 23.775C22.3529 23.7175 22.9975 23.2459 23.2407 22.4521C23.5812 21.3363 23.8366 20.1859 24.0433 19.0356C24.1528 18.4374 23.6299 18.1153 23.0461 18.3453C22.3894 18.6099 21.7327 18.8515 21.1125 19.1736C20.4801 19.4957 19.8964 19.9098 19.2883 20.2779C19.0329 20.439 18.7897 20.623 18.51 20.7496C17.0385 21.3708 15.1657 21.0602 13.9982 19.9558C13.4509 19.4382 12.9158 19.0125 12.1132 18.932C11.8092 18.8975 11.5173 18.6789 11.2133 18.5869C10.9092 18.4834 10.5079 18.2878 10.289 18.3913C10.0579 18.4949 9.89985 18.909 9.86337 19.1966C9.75391 20.2664 10.0579 21.2788 10.4106 22.2796C10.7633 23.2689 11.4808 23.7635 12.5145 23.7865C13.986 23.8211 15.4818 23.7865 16.9777 23.7865Z" fill="#FF9C43"/>
</svg>
